<?xml version="1.0" standalone="no"?>
<!DOCTYPE svg PUBLIC "-//W3C//DTD SVG 20010904//EN"
 "http://www.w3.org/TR/2001/REC-SVG-20010904/DTD/svg10.dtd">
<svg version="1.0" xmlns="http://www.w3.org/2000/svg"
 width="512.000000pt" height="512.000000pt" viewBox="0 0 512.000000 512.000000"
 preserveAspectRatio="xMidYMid meet">

<g transform="translate(0.000000,512.000000) scale(0.100000,-0.100000)"
fill="#000000" stroke="none">
<path d="M872 4319 c-75 -38 -286 -290 -405 -485 -70 -115 -161 -296 -203
-404 -75 -195 -135 -491 -154 -759 -34 -489 107 -1025 381 -1446 137 -211 314
-415 387 -448 134 -59 275 79 222 218 -6 15 -44 64 -86 109 -294 316 -482 707
-550 1142 -23 148 -23 450 0 599 38 243 92 418 196 630 102 209 184 328 367
533 82 92 100 137 83 201 -14 52 -45 90 -94 112 -54 24 -91 24 -144 -2z"/>
<path d="M4079 4317 c-53 -36 -79 -82 -79 -142 0 -62 20 -95 119 -200 351
-373 551 -887 551 -1420 0 -259 -27 -435 -105 -670 -94 -287 -228 -516 -448
-766 -47 -53 -90 -113 -97 -133 -34 -103 53 -216 165 -216 55 0 104 31 176
111 189 212 297 369 404 591 173 360 245 676 245 1078 1 452 -111 864 -338
1248 -121 203 -334 467 -419 519 -52 31 -128 31 -174 0z"/>
<path d="M1384 3850 c-44 -10 -82 -39 -145 -112 -128 -146 -202 -259 -283
-428 -306 -638 -199 -1400 271 -1936 113 -128 178 -156 269 -115 59 27 87 72
92 146 4 69 3 72 -111 202 -170 194 -281 424 -333 688 -24 123 -24 375 0 505
47 259 167 503 348 710 41 47 80 95 87 107 14 28 14 108 0 136 -38 74 -119
114 -195 97z"/>
<path d="M3610 3837 c-75 -40 -109 -133 -76 -210 8 -18 48 -70 90 -117 316
-351 440 -830 334 -1285 -55 -236 -162 -442 -336 -644 -66 -76 -83 -103 -88
-137 -16 -111 69 -201 182 -192 67 6 102 32 201 151 569 683 556 1658 -32
2329 -111 127 -182 154 -275 105z"/>
<path d="M3219 3430 c-44 -13 -74 -38 -98 -81 -28 -50 -26 -135 5 -173 10 -13
45 -55 77 -93 69 -81 139 -217 168 -328 29 -109 31 -290 5 -395 -34 -139 -108
-272 -228 -413 -41 -48 -50 -132 -20 -187 35 -65 112 -100 190 -85 28 5 52 22
97 68 155 158 265 378 306 607 17 97 17 304 0 400 -38 214 -138 419 -286 586
-79 90 -141 117 -216 94z"/>
<path d="M1775 3416 c-17 -7 -54 -39 -83 -71 -365 -399 -413 -987 -118 -1439
62 -96 155 -200 198 -222 30 -16 105 -18 140 -5 68 26 115 120 99 194 -9 37
-16 47 -111 161 -27 33 -68 96 -89 140 -157 319 -104 682 138 949 59 66 77
117 61 177 -28 103 -139 158 -235 116z"/>
<path d="M2392 3065 c-386 -124 -503 -614 -217 -900 167 -167 424 -207 635
-100 112 57 217 178 262 300 26 73 35 217 19 297 -41 194 -203 362 -398 413
-87 23 -214 19 -301 -10z"/>
</g>
</svg>
